FFmpeg version SVN-r25716, Copyright (c) 2000-2010 the FFmpeg developers  built on Nov 10 2010 12:23:18 with gcc 4.1.2 20080704 (Red Hat 4.1.2-48)  configuration: --enable-libmp3lame --enable-shared --disable-mmx --arch=x86_64  libavutil     50.33. 0 / 50.33. 0  libavcore      0.12. 1 /  0.12. 1  libavcodec    52.94. 4 / 52.94. 4  libavformat   52.84. 0 / 52.84. 0  libavdevice   52. 2. 2 / 52. 2. 2  libavfilter    1.59. 0 /  1.59. 0  libswscale     0.12. 0 /  0.12. 0Seems stream 0 codec frame rate differs from container frame rate: 600.00 (600/1) -> 30.00 (30/1)Input #0, mov,mp4,m4a,3gp,3g2,mj2, from '/RAID10/data/converted_video_files/11810.mov':  Duration: 00:00:06.00, start: 0.000000, bitrate: 14086 kb/s    Stream #0.0(eng): Video: cinepak, yuv420p, 622x512, 14084 kb/s, 30 fps, 30 tbr, 600 tbn, 600 tbc[buffer @ 0x18af7ac0] w:622 h:512 pixfmt:yuv420pOutput #0, flv, to '/RAID10/data/converted_video_files/11810.flv':  Metadata:    encoder         : Lavf52.84.0    Stream #0.0(eng): Video: flv, yuv420p, 622x512, q=2-31, 600 kb/s, 1k tbn, 24 tbcStream mapping:  Stream #0.0 -> #0.0Press [q] to stop encodingframe=   45 fps=  0 q=8.7 size=     514kB time=1.88 bitrate=2247.0kbits/s dup=0 drop=11    frame=   98 fps= 95 q=10.2 size=     677kB time=4.08 bitrate=1359.1kbits/s dup=0 drop=24    frame=  128 fps= 83 q=11.2 size=     758kB time=5.33 bitrate=1164.3kbits/s dup=0 drop=31    frame=  144 fps= 79 q=11.7 Lsize=     799kB time=6.00 bitrate=1090.5kbits/s dup=0 drop=36    video:796kB audio:0kB global headers:0kB muxing overhead 0.308327%